HIERARCHY
ROOT Hips
{
  OFFSET -187.679 86.5976 -156.378
  CHANNELS 6 Xposition Yposition Zposition Zrotation Xrotation Yrotation
  JOINT LeftUpLeg
  {
    OFFSET 8.64259 1.95398 -2.38835
    CHANNELS 3 Zrotation Xrotation Yrotation
    JOINT LeftLeg
    {
      OFFSET 43.7702 0 0
      CHANNELS 3 Zrotation Xrotation Yrotation
      JOINT LeftFoot
      {
        OFFSET 40.6238 0 0
        CHANNELS 3 Zrotation Xrotation Yrotation
        JOINT LeftToeBase
        {
          OFFSET 12.7242 0 0
          CHANNELS 3 Zrotation Xrotation Yrotation
          End Site
          {
            OFFSET 0 0 0
          }
        }
      }
    }
  }
  JOINT RightUpLeg
  {
    OFFSET -8.2249 1.95398 -2.59336
    CHANNELS 3 Zrotation Xrotation Yrotation
    JOINT RightLeg
    {
      OFFSET 43.5653 0 0
      CHANNELS 3 Zrotation Xrotation Yrotation
      JOINT RightFoot
      {
        OFFSET 40.6238 0 0
        CHANNELS 3 Zrotation Xrotation Yrotation
        JOINT RightToeBase
        {
          OFFSET 12.7242 0 0
          CHANNELS 3 Zrotation Xrotation Yrotation
          End Site
          {
            OFFSET 0 0 0
          }
        }
      }
    }
  }
  JOINT Spine
  {
    OFFSET 0.165834 0.87714 6.61349
    CHANNELS 3 Zrotation Xrotation Yrotation
    JOINT Spine1
    {
      OFFSET 7.38963 1.71661e-005 0
      CHANNELS 3 Zrotation Xrotation Yrotation
      JOINT Spine2
      {
        OFFSET 11.9445 1.14441e-005 0
        CHANNELS 3 Zrotation Xrotation Yrotation
        JOINT Spine3
        {
          OFFSET 14.7254 4.19617e-005 0
          CHANNELS 3 Zrotation Xrotation Yrotation
          JOINT Spine4
          {
            OFFSET 10.9679 0 0
            CHANNELS 3 Zrotation Xrotation Yrotation
            JOINT RightShoulder
            {
              OFFSET 2.46616 -1.6653 3.69651
              CHANNELS 3 Zrotation Xrotation Yrotation
              JOINT RightArm
              {
                OFFSET 13.0012 0 0
                CHANNELS 3 Zrotation Xrotation Yrotation
                JOINT RightForeArm
                {
                  OFFSET 28.7848 1.52588e-005 0
                  CHANNELS 3 Zrotation Xrotation Yrotation
                  JOINT RightHand
                  {
                    OFFSET 26.5688 1.52588e-005 0
                    CHANNELS 3 Zrotation Xrotation Yrotation
                    End Site
                    {
                      OFFSET 0 0 0
                    }
                  }
                }
              }
            }
            JOINT LeftShoulder
            {
              OFFSET 2.38034 -1.29275 -3.7523
              CHANNELS 3 Zrotation Xrotation Yrotation
              JOINT LeftArm
              {
                OFFSET 16.3182 6.10352e-005 0
                CHANNELS 3 Zrotation Xrotation Yrotation
                JOINT LeftForeArm
                {
                  OFFSET 27.0901 0 0
                  CHANNELS 3 Zrotation Xrotation Yrotation
                  JOINT LeftHand
                  {
                    OFFSET 24.5451 1.52588e-005 0
                    CHANNELS 3 Zrotation Xrotation Yrotation
                    End Site
                    {
                      OFFSET 0 0 0
                    }
                  }
                }
              }
            }
            JOINT Neck
            {
              OFFSET 5.0226 -0.0266342 0
              CHANNELS 3 Zrotation Xrotation Yrotation
              JOINT Head
              {
                OFFSET 6.69363 2.86102e-005 0
                CHANNELS 3 Zrotation Xrotation Yrotation
                End Site
                {
                  OFFSET 0 0 0
                }
              }
            }
          }
        }
      }
    }
  }
}
MOTION
Frames:	6
Frame Time:	0.0416667
-238.641 98.2971 -203.311 98.452 -34.4989 96.1266 -175.12 11.2746 95.2014 -68.2961 21.7909 9.59282 62.1395 2.39842 4.26639 18.6897 -1.33824 -6.01552 175.051 3.22172 95.3223 -31.8079 11.375 5.51647 74.0569 -3.85297 -1.20115 18.3513 -3.87939 5.70606 -0.0555654 8.46318 -90.259 9.94764 -0.228401 -0.496193 -1.72341 -0.250009 -0.485669 -24.2577 -0.0687288 -0.541895 -4.24505 -0.068724 -0.5419 85.4703 -49.6646 -107.6 25.6329 -21.1652 -6.22623 -17.6289 -14.5014 -19.7599 -5.93454 -0.049171 -4.44369 -91.7816 -46.2004 75.3381 -24.0963 22.0592 -6.07521 10.0622 -6.92671 -20.1552 -5.20033 -0.0902326 -3.99868 16.3854 -4.43592 -5.55209 10.9086 -2.39005 2.70628 
-234.498 98.9854 -199.345 98.0325 -36.8615 93.5536 -176.317 18.7125 90.577 -60.5248 17.2494 6.86809 63.8251 3.34396 4.80122 20.822 -0.491795 -6.52413 174.624 -1.6841 93.1678 -27.6299 7.79325 3.76686 74.3855 -3.54621 -2.02557 18.9332 -3.633 5.40213 0.498042 8.39309 -89.8772 10.0881 1.04841 0.155525 -1.58244 1.05423 0.109219 -24.1205 0.953186 0.463452 -4.10781 0.9532 0.463448 85.9481 -48.512 -107.234 22.0515 -22.5857 -11.9778 -17.4111 -13.4497 -20.4835 -7.6688 0.0206872 -5.59681 -90.8326 -46.2545 76.8229 -24.6593 17.6895 -1.43965 9.54265 -8.52927 -22.2923 -3.07585 -0.0950761 -2.79775 13.1827 -4.918 -4.78334 11.8613 -3.28818 1.96665 
-230.199 99.1002 -195.458 97.858 -39.8316 92.4608 -177.326 22.4084 88.0983 -45.0814 15.2954 4.90364 61.9839 2.49001 4.10264 25.2197 -0.611802 -2.15413 174.457 -6.09533 92.0425 -24.3953 2.89784 2.13045 73.5419 -3.15369 -3.98915 21.5875 -3.01553 5.27781 0.941324 8.46415 -89.6675 9.94184 2.02711 0.494414 -1.72759 2.04694 0.404667 -24.2724 1.7848 1.08095 -4.2597 1.7848 1.08094 85.9364 -47.4298 -107.596 15.66 -24.3053 -19.7826 -18.4021 -15.666 -22.5245 -9.96787 -0.0711303 -4.36197 -91.1805 -47.8692 76.6858 -23.324 15.5222 2.46849 9.12309 -9.44731 -24.7286 -3.49334 -0.0940198 -2.92646 12.3088 -4.70464 -2.96222 11.6098 -3.68 1.11792 
-225.455 98.1835 -191.279 97.5381 -42.441 92.0445 -178.948 22.4436 87.3399 -24.4259 14.6156 4.1031 61.2443 2.36102 2.30035 23.2629 -1.68603 -1.23419 174.03 -11.6688 90.9465 -20.9586 1.92033 1.32055 76.2554 -4.47629 -3.5409 23.1548 -3.00776 6.20969 1.20504 8.47066 -89.5256 9.92514 2.61711 0.728232 -1.74332 2.64665 0.612261 -24.2938 2.27724 1.48144 -4.28112 2.27724 1.48144 85.5696 -46.9575 -108.32 8.85618 -24.6552 -27.8261 -18.7743 -17.2697 -22.7595 -11.3895 -0.225532 -2.77952 -91.1672 -48.8801 76.9515 -23.3119 14.4751 6.12993 8.51619 -10.5845 -24.4952 -3.80574 -0.10126 -3.27409 12.206 -4.24435 -1.38786 11.4328 -3.72007 0.345619 
-220.38 96.6137 -186.634 97.8688 -45.4399 92.7474 -179.654 20.6886 87.1304 -8.59008 14.1475 4.63216 60.4723 1.99776 1.73964 23.5629 -3.35355 3.45906 173.139 -16.3677 89.8079 -20.5965 -1.25918 0.681244 76.7903 -5.01201 -4.13509 25.7794 -2.39639 6.09544 1.48663 8.48197 -89.4779 9.9004 3.20005 0.776542 -1.76676 3.23112 0.634799 -24.3259 2.81864 1.70302 -4.31324 2.81863 1.70301 84.8861 -47.0057 -109.368 4.07483 -22.9322 -33.5445 -18.7425 -17.27 -23.5679 -11.5549 -0.13439 -3.77673 -91.3785 -49.9835 76.8994 -24.2479 14.6543 8.66925 7.70345 -12.3788 -21.3669 -4.43668 -0.101039 -3.42844 12.2065 -3.71218 -0.0310207 11.542 -3.58608 -0.0532474 
-214.508 95.1672 -181.245 99.983 -48.6948 94.5933 -178.497 22.7974 87.4466 -15.6049 13.7014 3.55281 57.8356 -0.189009 -0.910997 22.549 -3.39624 2.48099 170.262 -22.0709 86.0744 -20.219 -5.54838 0.318303 75.0418 -5.10859 -3.8563 31.4426 -1.73807 8.14625 1.7442 8.57122 -89.4178 9.71857 3.74033 0.861256 -1.94718 3.77463 0.695565 -24.5155 3.30846 1.9466 -4.50289 3.30844 1.9466 84.8153 -46.7216 -109.577 3.31306 -21.2617 -37.1997 -20.554 -19.2784 -25.1109 -10.4997 -0.0313041 -4.85584 -91.7071 -51.6822 76.8177 -25.1066 15.6521 10.086 7.71367 -13.4382 -16.4802 -5.25533 -0.0675319 -4.91697 13.0636 -3.20251 0.714759 11.5454 -3.32425 -0.420892 
